<svg width="146" height="40" viewBox="0 0 146 40" fill="none" xmlns="http://www.w3.org/2000/svg">
<path d="M67.3739 22.7606C67.0323 24.5291 66.2184 25.9559 64.9322 27.0412C63.6661 28.1264 61.9679 28.669 59.8377 28.669C58.7324 28.669 57.6974 28.4982 56.7328 28.1565C55.7882 27.8149 54.9643 27.3225 54.2609 26.6794C53.5575 26.0363 53.0048 25.2425 52.6029 24.298C52.201 23.3534 52 22.2783 52 21.0725V20.7107C52 19.5049 52.201 18.4197 52.6029 17.4551C53.0048 16.4904 53.5575 15.6665 54.2609 14.9832C54.9843 14.2999 55.8184 13.7774 56.7629 13.4157C57.7275 13.0539 58.7525 12.873 59.8377 12.873C61.9277 12.873 63.6158 13.4157 64.902 14.5009C66.2083 15.5861 67.0323 17.0129 67.3739 18.7814L63.6359 19.7461C63.5154 18.8618 63.1335 18.0982 62.4904 17.4551C61.8473 16.812 60.943 16.4904 59.7774 16.4904C59.2348 16.4904 58.7223 16.5909 58.24 16.7919C57.7577 16.9928 57.3357 17.2843 56.9739 17.6661C56.6122 18.0278 56.3208 18.48 56.0997 19.0226C55.8987 19.5451 55.7983 20.138 55.7983 20.8012V20.982C55.7983 21.6452 55.8987 22.2381 56.0997 22.7606C56.3208 23.263 56.6122 23.685 56.9739 24.0267C57.3357 24.3683 57.7577 24.6296 58.24 24.8104C58.7223 24.9712 59.2348 25.0516 59.7774 25.0516C60.943 25.0516 61.8272 24.7602 62.4301 24.1774C63.0531 23.5946 63.4551 22.8108 63.6359 21.8261L67.3739 22.7606Z" fill="white"/>
<path d="M72.4173 24.6296H77.4817V16.9125H72.779V13.2951H81.2799V24.6296H85.6208V28.247H72.4173V24.6296ZM82.2144 8.86377C82.2144 9.2657 82.134 9.64754 81.9732 10.0093C81.8326 10.3509 81.6316 10.6524 81.3703 10.9136C81.1091 11.1548 80.7976 11.3557 80.4359 11.5165C80.0942 11.6572 79.7325 11.7275 79.3506 11.7275C78.9487 11.7275 78.5769 11.6572 78.2353 11.5165C77.8936 11.3557 77.5922 11.1548 77.3309 10.9136C77.0697 10.6524 76.8587 10.3509 76.6979 10.0093C76.5572 9.64754 76.4869 9.2657 76.4869 8.86377C76.4869 8.46184 76.5572 8.09005 76.6979 7.74841C76.8587 7.38667 77.0697 7.08522 77.3309 6.84406C77.5922 6.5828 77.8936 6.38184 78.2353 6.24116C78.5769 6.08039 78.9487 6 79.3506 6C79.7325 6 80.0942 6.08039 80.4359 6.24116C80.7976 6.38184 81.1091 6.5828 81.3703 6.84406C81.6316 7.08522 81.8326 7.38667 81.9732 7.74841C82.134 8.09005 82.2144 8.46184 82.2144 8.86377Z" fill="white"/>
<path d="M94.5227 34.2759H90.7245V13.2951H94.5227V15.4655H95.0653C95.4673 14.6415 96.0501 14.0085 96.8137 13.5664C97.5774 13.1042 98.5521 12.873 99.7378 12.873C100.622 12.873 101.456 13.0439 102.24 13.3855C103.044 13.7271 103.737 14.2296 104.32 14.8928C104.923 15.5358 105.395 16.3297 105.737 17.2742C106.098 18.2187 106.279 19.2939 106.279 20.4997V21.0423C106.279 22.2682 106.108 23.3534 105.767 24.298C105.425 25.2425 104.963 26.0464 104.38 26.7096C103.797 27.3527 103.104 27.845 102.3 28.1867C101.516 28.5082 100.662 28.669 99.7378 28.669C99.0545 28.669 98.4617 28.5986 97.9592 28.458C97.4568 28.3173 97.0147 28.1264 96.6329 27.8852C96.2711 27.6441 95.9596 27.3728 95.6984 27.0713C95.4572 26.7498 95.2462 26.4182 95.0653 26.0765H94.5227V34.2759ZM98.5018 25.0516C99.6875 25.0516 100.642 24.6899 101.366 23.9664C102.109 23.2228 102.481 22.218 102.481 20.9519V20.5901C102.481 19.3241 102.109 18.3293 101.366 17.6058C100.642 16.8622 99.6875 16.4904 98.5018 16.4904C97.3161 16.4904 96.3515 16.8723 95.6079 17.6359C94.8845 18.3795 94.5227 19.3643 94.5227 20.5901V20.9519C94.5227 22.1778 94.8845 23.1726 95.6079 23.9362C96.3515 24.6798 97.3161 25.0516 98.5018 25.0516Z" fill="white"/>
<path d="M114.729 28.247H110.931V7.14551H114.729V15.7067H115.272C115.653 14.8023 116.216 14.109 116.96 13.6267C117.703 13.1243 118.618 12.873 119.703 12.873C120.446 12.873 121.13 12.9936 121.753 13.2348C122.376 13.4759 122.918 13.8377 123.381 14.32C123.843 14.8023 124.205 15.4253 124.466 16.189C124.727 16.9326 124.858 17.8168 124.858 18.8417V28.247H121.059V19.7461C121.059 18.681 120.798 17.847 120.276 17.2441C119.773 16.6211 119.04 16.3096 118.075 16.3096C116.95 16.3096 116.106 16.6914 115.543 17.4551C115 18.1986 114.729 19.2035 114.729 20.4696V28.247Z" fill="white"/>
<path d="M129.509 13.2951H135.84V15.4655H136.382C136.664 14.6415 137.136 14.0085 137.799 13.5664C138.482 13.1042 139.296 12.873 140.241 12.873C141.728 12.873 142.924 13.3453 143.828 14.2899C144.732 15.2143 145.185 16.6311 145.185 18.5403V19.2035L141.266 19.5652V19.1432C141.266 18.3192 141.055 17.6661 140.633 17.1838C140.211 16.6814 139.578 16.4301 138.734 16.4301C137.889 16.4301 137.226 16.7215 136.744 17.3043C136.262 17.8872 136.021 18.7212 136.021 19.8064V24.6296H139.457V28.247H129.147V24.6296H132.222V16.9125H129.509V13.2951Z" fill="white"/>
<rect width="40" height="40" rx="4" fill="#8000FF"/>
<path fill-rule="evenodd" clip-rule="evenodd" d="M13.3743 9.26261C18.313 6.19562 24.9157 6.82184 29.236 11.1421C33.5365 15.4426 34.1767 22.0048 31.1573 26.936C30.7756 27.5594 30.9715 28.3742 31.5949 28.7559C32.2182 29.1376 33.033 28.9417 33.4147 28.3183C37.0638 22.359 36.2861 14.4487 31.1077 9.27037C25.9057 4.06833 17.9465 3.30724 11.9778 7.0139C11.3569 7.39953 11.1661 8.21554 11.5517 8.8365C11.9374 9.45747 12.7534 9.64824 13.3743 9.26261ZM9.26286 13.3741C9.64849 12.7531 9.45771 11.9371 8.83675 11.5515C8.21578 11.1659 7.39977 11.3566 7.01414 11.9776C3.30749 17.9463 4.06857 25.9054 9.27062 31.1075C14.4489 36.2858 22.3592 37.0635 28.3186 33.4145C28.942 33.0328 29.1379 32.218 28.7562 31.5946C28.3745 30.9712 27.5597 30.7753 26.9363 31.157C22.0051 34.1765 15.4429 33.5363 11.1424 29.2357C6.82208 24.9155 6.19587 18.3127 9.26286 13.3741ZM15.0349 19.8877C15.0349 17.0622 17.3623 14.7406 20.2717 14.7406C22.3145 14.7406 24.0776 15.8884 24.9417 17.5556C25.278 18.2045 26.0768 18.458 26.7258 18.1216C27.3748 17.7853 27.6282 16.9865 27.2918 16.3375C25.9842 13.8144 23.3278 12.0936 20.2717 12.0936C15.9348 12.0936 12.3878 15.566 12.3878 19.8877C12.3878 24.2094 15.9348 27.6818 20.2717 27.6818C23.3278 27.6818 25.9842 25.961 27.2918 23.4379C27.6282 22.7889 27.3748 21.9902 26.7258 21.6538C26.0768 21.3174 25.278 21.5709 24.9417 22.2199C24.0776 23.887 22.3145 25.0348 20.2717 25.0348C17.3623 25.0348 15.0349 22.7132 15.0349 19.8877Z" fill="white"/>
</svg>
