<svg width="131" height="40" viewBox="0 0 131 40" fill="none" xmlns="http://www.w3.org/2000/svg">
<path d="M64.1987 22.3891C63.9054 23.9074 63.2066 25.1324 62.1024 26.0641C61.0155 26.9957 59.5576 27.4616 57.7287 27.4616C56.7798 27.4616 55.8913 27.3149 55.0631 27.0216C54.2522 26.7283 53.5448 26.3056 52.941 25.7535C52.3371 25.2014 51.8627 24.5199 51.5176 23.709C51.1725 22.8981 51 21.9751 51 20.9399V20.6293C51 19.5941 51.1725 18.6625 51.5176 17.8343C51.8627 17.0062 52.3371 16.2988 52.941 15.7122C53.5621 15.1256 54.2781 14.677 55.089 14.3664C55.9172 14.0559 56.7971 13.9006 57.7287 13.9006C59.5231 13.9006 60.9723 14.3664 62.0765 15.2981C63.198 16.2298 63.9054 17.4547 64.1987 18.973L60.9896 19.8012C60.8861 19.042 60.5583 18.3864 60.0062 17.8343C59.4541 17.2822 58.6777 17.0062 57.677 17.0062C57.2111 17.0062 56.7712 17.0924 56.3571 17.265C55.943 17.4375 55.5807 17.6877 55.2702 18.0155C54.9596 18.326 54.7094 18.7142 54.5196 19.1801C54.3471 19.6286 54.2608 20.1376 54.2608 20.707V20.8622C54.2608 21.4316 54.3471 21.9406 54.5196 22.3891C54.7094 22.8205 54.9596 23.1828 55.2702 23.4761C55.5807 23.7694 55.943 23.9937 56.3571 24.149C56.7712 24.287 57.2111 24.356 57.677 24.356C58.6777 24.356 59.4368 24.1058 59.9544 23.6055C60.4892 23.1052 60.8343 22.4323 60.9896 21.5869L64.1987 22.3891Z" fill="white"/>
<path d="M68.5285 23.9937H72.8763V17.3685H68.839V14.2629H76.1371V23.9937H79.8638V27.0993H68.5285V23.9937ZM76.9394 10.4586C76.9394 10.8036 76.8704 11.1315 76.7324 11.442C76.6116 11.7353 76.4391 11.9941 76.2148 12.2184C75.9905 12.4254 75.7231 12.598 75.4125 12.736C75.1192 12.8568 74.8086 12.9172 74.4808 12.9172C74.1358 12.9172 73.8166 12.8568 73.5233 12.736C73.23 12.598 72.9712 12.4254 72.7469 12.2184C72.5226 11.9941 72.3414 11.7353 72.2034 11.442C72.0826 11.1315 72.0223 10.8036 72.0223 10.4586C72.0223 10.1135 72.0826 9.79433 72.2034 9.50103C72.3414 9.19047 72.5226 8.93167 72.7469 8.72463C72.9712 8.50034 73.23 8.32781 73.5233 8.20704C73.8166 8.06901 74.1358 8 74.4808 8C74.8086 8 75.1192 8.06901 75.4125 8.20704C75.7231 8.32781 75.9905 8.50034 76.2148 8.72463C76.4391 8.93167 76.6116 9.19047 76.7324 9.50103C76.8704 9.79433 76.9394 10.1135 76.9394 10.4586Z" fill="white"/>
<path d="M87.5062 32.2752H84.2454V14.2629H87.5062V16.1262H87.9721C88.3171 15.4189 88.8175 14.8754 89.4731 14.4958C90.1287 14.099 90.9655 13.9006 91.9834 13.9006C92.7426 13.9006 93.4586 14.0472 94.1314 14.3405C94.8216 14.6338 95.4168 15.0652 95.9171 15.6345C96.4347 16.1866 96.8402 16.8681 97.1335 17.679C97.4441 18.4899 97.5993 19.413 97.5993 20.4482V20.914C97.5993 21.9664 97.4527 22.8981 97.1594 23.709C96.8661 24.5199 96.4693 25.21 95.9689 25.7794C95.4686 26.3315 94.8733 26.7542 94.1832 27.0475C93.5103 27.3236 92.7771 27.4616 91.9834 27.4616C91.3968 27.4616 90.8878 27.4012 90.4565 27.2804C90.0252 27.1596 89.6456 26.9957 89.3178 26.7887C89.0073 26.5817 88.7398 26.3487 88.5155 26.09C88.3085 25.8139 88.1273 25.5292 87.9721 25.2359H87.5062V32.2752ZM90.9224 24.356C91.9403 24.356 92.7598 24.0455 93.3809 23.4243C94.0193 22.786 94.3385 21.9233 94.3385 20.8364V20.5258C94.3385 19.4389 94.0193 18.5848 93.3809 17.9637C92.7598 17.3253 91.9403 17.0062 90.9224 17.0062C89.9044 17.0062 89.0763 17.334 88.4379 17.9896C87.8168 18.628 87.5062 19.4734 87.5062 20.5258V20.8364C87.5062 21.8888 87.8168 22.7428 88.4379 23.3985C89.0763 24.0368 89.9044 24.356 90.9224 24.356Z" fill="white"/>
<path d="M104.854 27.0993H101.593V8.98343H104.854V16.3333H105.319C105.647 15.5569 106.13 14.9617 106.769 14.5476C107.407 14.1162 108.192 13.9006 109.124 13.9006C109.762 13.9006 110.349 14.0041 110.884 14.2111C111.418 14.4182 111.884 14.7287 112.281 15.1428C112.678 15.5569 112.988 16.0917 113.213 16.7474C113.437 17.3857 113.549 18.1449 113.549 19.0248V27.0993H110.288V19.8012C110.288 18.8868 110.064 18.1707 109.615 17.6532C109.184 17.1183 108.554 16.8509 107.726 16.8509C106.76 16.8509 106.035 17.1787 105.552 17.8343C105.086 18.4727 104.854 19.3353 104.854 20.4223V27.0993Z" fill="white"/>
<path d="M117.543 14.2629H122.977V16.1262H123.443C123.685 15.4189 124.09 14.8754 124.659 14.4958C125.246 14.099 125.945 13.9006 126.756 13.9006C128.032 13.9006 129.059 14.306 129.835 15.1169C130.612 15.9106 131 17.1269 131 18.766V19.3353L127.636 19.6459V19.2836C127.636 18.5762 127.454 18.0155 127.092 17.6014C126.73 17.1701 126.186 16.9544 125.462 16.9544C124.737 16.9544 124.168 17.2046 123.754 17.7049C123.34 18.2053 123.133 18.9213 123.133 19.8529V23.9937H126.083V27.0993H117.232V23.9937H119.872V17.3685H117.543V14.2629Z" fill="white"/>
<rect width="40" height="40" rx="4" fill="#8000FF"/>
<path fill-rule="evenodd" clip-rule="evenodd" d="M13.3743 9.26261C18.313 6.19562 24.9157 6.82184 29.236 11.1421C33.5365 15.4426 34.1767 22.0048 31.1573 26.936C30.7756 27.5594 30.9715 28.3742 31.5949 28.7559C32.2182 29.1376 33.033 28.9417 33.4147 28.3183C37.0638 22.359 36.2861 14.4487 31.1077 9.27037C25.9057 4.06833 17.9465 3.30724 11.9778 7.0139C11.3569 7.39953 11.1661 8.21554 11.5517 8.8365C11.9374 9.45747 12.7534 9.64824 13.3743 9.26261ZM9.26286 13.3741C9.64849 12.7531 9.45771 11.9371 8.83675 11.5515C8.21578 11.1659 7.39977 11.3566 7.01414 11.9776C3.30749 17.9463 4.06857 25.9054 9.27062 31.1075C14.4489 36.2858 22.3592 37.0635 28.3186 33.4145C28.942 33.0328 29.1379 32.218 28.7562 31.5946C28.3745 30.9712 27.5597 30.7753 26.9363 31.157C22.0051 34.1765 15.4429 33.5363 11.1424 29.2357C6.82208 24.9155 6.19587 18.3127 9.26286 13.3741ZM15.0349 19.8877C15.0349 17.0622 17.3623 14.7406 20.2717 14.7406C22.3145 14.7406 24.0776 15.8884 24.9417 17.5556C25.278 18.2045 26.0768 18.458 26.7258 18.1216C27.3748 17.7853 27.6282 16.9865 27.2918 16.3375C25.9842 13.8144 23.3278 12.0936 20.2717 12.0936C15.9348 12.0936 12.3878 15.566 12.3878 19.8877C12.3878 24.2094 15.9348 27.6818 20.2717 27.6818C23.3278 27.6818 25.9842 25.961 27.2918 23.4379C27.6282 22.7889 27.3748 21.9902 26.7258 21.6538C26.0768 21.3174 25.278 21.5709 24.9417 22.2199C24.0776 23.887 22.3145 25.0348 20.2717 25.0348C17.3623 25.0348 15.0349 22.7132 15.0349 19.8877Z" fill="white"/>
</svg>
