<?xml version="1.0" encoding="UTF-8"?>
<svg xmlns="http://www.w3.org/2000/svg" viewBox="0 0 50 50" width="50px" height="50px">
<g id="surface25199893">
<path style=" stroke:none;fill-rule:evenodd;fill:rgb(15.686275%,20.784314%,57.647061%);fill-opacity:1;" d="M 23.855469 3.421875 C 24.566406 3.027344 25.433594 3.027344 26.140625 3.421875 C 29.636719 5.382812 40.152344 11.289062 43.648438 13.25 C 44.355469 13.644531 44.792969 14.378906 44.792969 15.171875 C 44.792969 19.097656 44.792969 30.902344 44.792969 34.824219 C 44.792969 35.621094 44.355469 36.351562 43.648438 36.75 C 40.152344 38.710938 29.636719 44.617188 26.140625 46.578125 C 25.433594 46.972656 24.5625 46.972656 23.855469 46.578125 C 20.363281 44.617188 9.847656 38.710938 6.351562 36.75 C 5.644531 36.351562 5.207031 35.621094 5.207031 34.828125 C 5.207031 30.902344 5.207031 19.097656 5.207031 15.175781 C 5.207031 14.378906 5.644531 13.648438 6.351562 13.25 C 9.84375 11.289062 20.363281 5.382812 23.855469 3.421875 Z M 23.855469 3.421875 "/>
<path style=" stroke:none;fill-rule:evenodd;fill:rgb(36.078432%,41.960785%,75.294119%);fill-opacity:1;" d="M 5.523438 35.835938 C 5.246094 35.464844 5.207031 35.113281 5.207031 34.640625 C 5.207031 30.742188 5.207031 19 5.207031 15.101562 C 5.207031 14.308594 5.644531 13.582031 6.347656 13.1875 C 9.832031 11.238281 20.3125 5.367188 23.792969 3.417969 C 24.5 3.023438 25.453125 3.03125 26.160156 3.425781 C 29.640625 5.375 40.085938 11.195312 43.570312 13.144531 C 43.851562 13.304688 44.066406 13.492188 44.257812 13.746094 Z M 5.523438 35.835938 "/>
<path style=" stroke:none;fill-rule:evenodd;fill:rgb(100%,100%,100%);fill-opacity:1;" d="M 25 10.417969 C 33.050781 10.417969 39.582031 16.949219 39.582031 25 C 39.582031 33.050781 33.050781 39.582031 25 39.582031 C 16.949219 39.582031 10.417969 33.050781 10.417969 25 C 10.417969 16.949219 16.949219 10.417969 25 10.417969 Z M 25 17.707031 C 29.023438 17.707031 32.292969 20.976562 32.292969 25 C 32.292969 29.023438 29.023438 32.292969 25 32.292969 C 20.976562 32.292969 17.707031 29.023438 17.707031 25 C 17.707031 20.976562 20.976562 17.707031 25 17.707031 Z M 25 17.707031 "/>
<path style=" stroke:none;fill-rule:evenodd;fill:rgb(22.352941%,28.627452%,67.058825%);fill-opacity:1;" d="M 44.253906 13.753906 C 44.792969 14.257812 44.78125 15.015625 44.78125 15.613281 C 44.78125 19.566406 44.75 30.808594 44.792969 34.761719 C 44.796875 35.175781 44.660156 35.609375 44.457031 35.9375 L 24.574219 25 Z M 44.253906 13.753906 "/>
</g>
</svg>
